<?xml version="1.0" encoding="UTF-8"?>
<svg xmlns="http://www.w3.org/2000/svg" xmlns:xlink="http://www.w3.org/1999/xlink" width="174.591pt" height="40.252pt" viewBox="0 0 474.591 600.252" version="1.1">
<defs>
<clipPath id="clip1">
  <path d="M 47 22 L 174.589844 22 L 174.589844 28 L 47 28 Z M 47 22 "/>
</clipPath>
<clipPath id="clip2">
  <path d="M 0 0 L 41 0 L 41 40.253906 L 0 40.253906 Z M 0 0 "/>
</clipPath>
</defs>
<g id="surface1">
<g clip-path="url(#clip1)" clip-rule="nonzero">
<path style=" stroke:none;fill-rule:nonzero;fill:rgb(19.999695%,64.898682%,76.599121%);fill-opacity:0.5;" d="M 50.808594 26.28125 C 50.808594 25.363281 50.074219 25.105469 49.34375 24.867188 C 49.03125 24.761719 48.636719 24.652344 48.34375 24.5 C 48.074219 24.351562 47.890625 24.160156 47.890625 23.867188 C 47.890625 23.261719 48.480469 23.019531 49.011719 23.019531 C 49.546875 23.019531 49.972656 23.21875 50.03125 23.8125 L 50.703125 23.8125 C 50.6875 22.828125 49.859375 22.519531 49.019531 22.519531 C 48.132812 22.519531 47.222656 22.914062 47.222656 23.925781 C 47.222656 24.808594 47.949219 25.085938 48.675781 25.3125 C 49.003906 25.410156 49.378906 25.511719 49.675781 25.671875 C 49.945312 25.820312 50.128906 26.035156 50.128906 26.359375 C 50.128906 27.011719 49.476562 27.265625 48.910156 27.265625 C 48.308594 27.265625 47.800781 26.984375 47.765625 26.332031 L 47.082031 26.339844 C 47.152344 27.386719 47.933594 27.78125 48.890625 27.78125 C 49.824219 27.78125 50.808594 27.359375 50.808594 26.28125 M 56.199219 22.582031 L 55.464844 22.582031 L 53.921875 25.03125 L 52.351562 22.582031 L 51.566406 22.582031 L 53.554688 25.566406 L 53.554688 27.710938 L 54.21875 27.710938 L 54.21875 25.597656 Z M 60.640625 26.28125 C 60.640625 25.363281 59.90625 25.105469 59.175781 24.867188 C 58.867188 24.761719 58.46875 24.652344 58.179688 24.5 C 57.910156 24.351562 57.726562 24.160156 57.726562 23.867188 C 57.726562 23.261719 58.3125 23.019531 58.84375 23.019531 C 59.382812 23.019531 59.808594 23.21875 59.863281 23.8125 L 60.535156 23.8125 C 60.523438 22.828125 59.695312 22.519531 58.851562 22.519531 C 57.964844 22.519531 57.054688 22.914062 57.054688 23.925781 C 57.054688 24.808594 57.78125 25.085938 58.511719 25.3125 C 58.835938 25.410156 59.210938 25.511719 59.511719 25.671875 C 59.78125 25.820312 59.964844 26.035156 59.964844 26.359375 C 59.964844 27.011719 59.3125 27.265625 58.746094 27.265625 C 58.144531 27.265625 57.632812 26.984375 57.597656 26.332031 L 56.914062 26.339844 C 56.984375 27.386719 57.769531 27.78125 58.726562 27.78125 C 59.660156 27.78125 60.640625 27.359375 60.640625 26.28125 M 65.53125 23.117188 L 65.53125 22.59375 L 61.613281 22.59375 L 61.613281 23.117188 L 63.238281 23.117188 L 63.238281 27.710938 L 63.898438 27.710938 L 63.898438 23.117188 Z M 70.046875 27.710938 L 70.046875 27.195312 L 67.4375 27.195312 L 67.4375 25.324219 L 69.84375 25.324219 L 69.84375 24.8125 L 67.4375 24.8125 L 67.4375 23.109375 L 69.949219 23.109375 L 69.949219 22.597656 L 66.78125 22.597656 L 66.78125 27.710938 Z M 76.902344 27.710938 L 76.902344 22.597656 L 75.839844 22.597656 L 74.199219 26.917969 L 72.515625 22.597656 L 71.453125 22.597656 L 71.453125 27.710938 L 72.054688 27.710938 L 72.054688 23.097656 L 73.867188 27.710938 L 74.476562 27.710938 L 76.28125 23.105469 L 76.28125 27.710938 Z M 82.140625 26.28125 C 82.140625 25.363281 81.40625 25.105469 80.675781 24.867188 C 80.363281 24.761719 79.96875 24.652344 79.675781 24.5 C 79.410156 24.351562 79.226562 24.160156 79.226562 23.867188 C 79.226562 23.261719 79.8125 23.019531 80.34375 23.019531 C 80.882812 23.019531 81.308594 23.21875 81.363281 23.8125 L 82.035156 23.8125 C 82.019531 22.828125 81.195312 22.519531 80.351562 22.519531 C 79.464844 22.519531 78.554688 22.914062 78.554688 23.925781 C 78.554688 24.808594 79.28125 25.085938 80.011719 25.3125 C 80.335938 25.410156 80.710938 25.511719 81.007812 25.671875 C 81.277344 25.820312 81.460938 26.035156 81.460938 26.359375 C 81.460938 27.011719 80.8125 27.265625 80.246094 27.265625 C 79.644531 27.265625 79.132812 26.984375 79.097656 26.332031 L 78.414062 26.339844 C 78.484375 27.386719 79.269531 27.78125 80.222656 27.78125 C 81.15625 27.78125 82.140625 27.359375 82.140625 26.28125 M 90.285156 27.710938 L 88.125 22.597656 L 87.398438 22.597656 L 85.316406 27.710938 L 85.988281 27.710938 L 86.515625 26.359375 L 88.992188 26.359375 L 89.519531 27.710938 Z M 88.785156 25.859375 L 86.699219 25.859375 C 87.039062 24.964844 87.339844 24.039062 87.722656 23.167969 Z M 95.550781 27.710938 L 95.550781 22.597656 L 94.953125 22.597656 L 94.953125 27.046875 L 92.410156 22.597656 L 91.519531 22.597656 L 91.519531 27.710938 L 92.121094 27.710938 L 92.121094 23.273438 L 94.664062 27.710938 Z M 101.554688 25.136719 C 101.554688 24.09375 101.234375 23.210938 100.257812 22.808594 C 99.847656 22.636719 99.289062 22.597656 98.84375 22.597656 L 97.34375 22.597656 L 97.34375 27.710938 L 98.574219 27.710938 C 98.859375 27.710938 99.15625 27.710938 99.4375 27.683594 C 100.902344 27.535156 101.554688 26.535156 101.554688 25.136719 M 100.863281 25.136719 C 100.863281 26.472656 100.324219 27.195312 98.929688 27.195312 L 98.007812 27.195312 L 98.007812 23.105469 L 98.800781 23.105469 C 99.246094 23.105469 99.75 23.132812 100.132812 23.410156 C 100.691406 23.8125 100.863281 24.484375 100.863281 25.136719 M 109.144531 26.339844 L 108.433594 26.339844 C 108.398438 26.875 107.949219 27.242188 107.292969 27.242188 C 106.109375 27.242188 105.734375 26.175781 105.734375 25.171875 C 105.734375 24.1875 106.160156 23.054688 107.3125 23.054688 C 107.859375 23.054688 108.355469 23.324219 108.410156 23.910156 L 109.109375 23.910156 C 109.082031 22.941406 108.167969 22.511719 107.320312 22.511719 C 105.785156 22.511719 105.035156 23.804688 105.035156 25.199219 C 105.035156 26.644531 105.699219 27.789062 107.277344 27.789062 C 108.242188 27.789062 109.019531 27.40625 109.144531 26.339844 M 114.929688 25.113281 C 114.929688 23.621094 114.246094 22.488281 112.625 22.488281 C 111.046875 22.488281 110.3125 23.707031 110.3125 25.148438 C 110.3125 26.621094 111.011719 27.796875 112.617188 27.796875 C 114.230469 27.796875 114.929688 26.589844 114.929688 25.113281 M 114.230469 25.136719 C 114.230469 26.175781 113.828125 27.273438 112.617188 27.273438 C 111.40625 27.273438 111.011719 26.167969 111.011719 25.136719 C 111.011719 24.109375 111.421875 23.019531 112.617188 23.019531 C 113.847656 23.019531 114.230469 24.082031 114.230469 25.136719 M 120.480469 27.710938 L 120.480469 22.597656 L 119.878906 22.597656 L 119.878906 27.046875 L 117.339844 22.597656 L 116.449219 22.597656 L 116.449219 27.710938 L 117.050781 27.710938 L 117.050781 23.273438 L 119.589844 27.710938 Z M 125.640625 23.117188 L 125.640625 22.59375 L 121.722656 22.59375 L 121.722656 23.117188 L 123.351562 23.117188 L 123.351562 27.710938 L 124.007812 27.710938 L 124.007812 23.117188 Z M 130.566406 27.710938 C 130.476562 27.578125 130.433594 27.40625 130.398438 27.214844 C 130.328125 26.828125 130.320312 26.464844 130.285156 26.125 C 130.230469 25.574219 130.066406 25.207031 129.414062 25.066406 C 130.03125 24.894531 130.433594 24.535156 130.433594 23.855469 C 130.433594 22.851562 129.550781 22.597656 128.714844 22.597656 L 126.890625 22.597656 L 126.890625 27.710938 L 127.554688 27.710938 L 127.554688 25.339844 L 128.644531 25.339844 C 129.5 25.339844 129.542969 25.699219 129.613281 26.453125 C 129.648438 26.875 129.65625 27.308594 129.820312 27.710938 Z M 129.753906 23.933594 C 129.753906 24.738281 129.027344 24.839844 128.382812 24.839844 L 127.554688 24.839844 L 127.554688 23.105469 L 128.566406 23.105469 C 129.152344 23.105469 129.753906 23.21875 129.753906 23.933594 M 136.378906 25.113281 C 136.378906 23.621094 135.691406 22.488281 134.070312 22.488281 C 132.492188 22.488281 131.757812 23.707031 131.757812 25.148438 C 131.757812 26.621094 132.457031 27.796875 134.066406 27.796875 C 135.679688 27.796875 136.378906 26.589844 136.378906 25.113281 M 135.679688 25.136719 C 135.679688 26.175781 135.273438 27.273438 134.066406 27.273438 C 132.855469 27.273438 132.457031 26.167969 132.457031 25.136719 C 132.457031 24.109375 132.867188 23.019531 134.066406 23.019531 C 135.296875 23.019531 135.679688 24.082031 135.679688 25.136719 M 141.082031 27.710938 L 141.082031 27.195312 L 138.570312 27.195312 L 138.570312 22.597656 L 137.90625 22.597656 L 137.90625 27.710938 Z M 147.960938 23.117188 L 147.960938 22.59375 L 144.042969 22.59375 L 144.042969 23.117188 L 145.667969 23.117188 L 145.667969 27.710938 L 146.328125 27.710938 L 146.328125 23.117188 Z M 153.1875 27.710938 L 153.1875 22.597656 L 152.523438 22.597656 L 152.523438 24.824219 L 149.875 24.824219 L 149.875 22.597656 L 149.210938 22.597656 L 149.210938 27.710938 L 149.875 27.710938 L 149.875 25.347656 L 152.523438 25.347656 L 152.523438 27.710938 Z M 158.257812 27.710938 L 158.257812 27.195312 L 155.648438 27.195312 L 155.648438 25.324219 L 158.050781 25.324219 L 158.050781 24.8125 L 155.648438 24.8125 L 155.648438 23.109375 L 158.160156 23.109375 L 158.160156 22.597656 L 154.988281 22.597656 L 154.988281 27.710938 Z M 164.007812 25.113281 C 164.007812 23.621094 163.324219 22.488281 161.703125 22.488281 C 160.125 22.488281 159.390625 23.707031 159.390625 25.148438 C 159.390625 26.621094 160.089844 27.796875 161.695312 27.796875 C 163.308594 27.796875 164.007812 26.589844 164.007812 25.113281 M 163.308594 25.136719 C 163.308594 26.175781 162.90625 27.273438 161.695312 27.273438 C 160.484375 27.273438 160.089844 26.167969 160.089844 25.136719 C 160.089844 24.109375 160.5 23.019531 161.695312 23.019531 C 162.925781 23.019531 163.308594 24.082031 163.308594 25.136719 M 169.21875 27.710938 C 169.125 27.578125 169.082031 27.40625 169.046875 27.214844 C 168.976562 26.828125 168.96875 26.464844 168.933594 26.125 C 168.878906 25.574219 168.714844 25.207031 168.066406 25.066406 C 168.679688 24.894531 169.082031 24.535156 169.082031 23.855469 C 169.082031 22.851562 168.199219 22.597656 167.363281 22.597656 L 165.539062 22.597656 L 165.539062 27.710938 L 166.203125 27.710938 L 166.203125 25.339844 L 167.292969 25.339844 C 168.148438 25.339844 168.191406 25.699219 168.261719 26.453125 C 168.296875 26.875 168.304688 27.308594 168.46875 27.710938 Z M 168.40625 23.933594 C 168.40625 24.738281 167.675781 24.839844 167.03125 24.839844 L 166.203125 24.839844 L 166.203125 23.105469 L 167.214844 23.105469 C 167.800781 23.105469 168.40625 23.21875 168.40625 23.933594 M 174.589844 22.582031 L 173.855469 22.582031 L 172.3125 25.03125 L 170.742188 22.582031 L 169.957031 22.582031 L 171.945312 25.566406 L 171.945312 27.710938 L 172.609375 27.710938 L 172.609375 25.597656 Z M 174.589844 22.582031 "/>
</g>
<path style=" stroke:none;fill-rule:nonzero;fill:rgb(19.999695%,64.898682%,76.599121%);fill-opacity:0.5;" d="M 51.167969 17.242188 L 50.453125 17.242188 C 50.417969 17.78125 49.972656 18.148438 49.316406 18.148438 C 48.132812 18.148438 47.757812 17.078125 47.757812 16.074219 C 47.757812 15.089844 48.183594 13.957031 49.335938 13.957031 C 49.882812 13.957031 50.375 14.226562 50.433594 14.8125 L 51.132812 14.8125 C 51.105469 13.84375 50.191406 13.414062 49.34375 13.414062 C 47.808594 13.414062 47.058594 14.707031 47.058594 16.101562 C 47.058594 17.546875 47.722656 18.691406 49.300781 18.691406 C 50.261719 18.691406 51.042969 18.308594 51.167969 17.242188 M 56.953125 16.015625 C 56.953125 14.523438 56.269531 13.390625 54.648438 13.390625 C 53.070312 13.390625 52.335938 14.609375 52.335938 16.054688 C 52.335938 17.527344 53.035156 18.699219 54.640625 18.699219 C 56.253906 18.699219 56.953125 17.492188 56.953125 16.015625 M 56.253906 16.039062 C 56.253906 17.078125 55.851562 18.175781 54.640625 18.175781 C 53.429688 18.175781 53.035156 17.074219 53.035156 16.039062 C 53.035156 15.011719 53.445312 13.921875 54.640625 13.921875 C 55.871094 13.921875 56.253906 14.984375 56.253906 16.039062 M 63.929688 18.613281 L 63.929688 13.5 L 62.871094 13.5 L 61.230469 17.820312 L 59.542969 13.5 L 58.484375 13.5 L 58.484375 18.613281 L 59.082031 18.613281 L 59.082031 14 L 60.894531 18.613281 L 61.503906 18.613281 L 63.308594 14.007812 L 63.308594 18.613281 Z M 69.207031 14.96875 C 69.207031 14.488281 69.007812 14.019531 68.589844 13.753906 C 68.210938 13.503906 67.757812 13.5 67.316406 13.5 L 65.742188 13.5 L 65.742188 18.613281 L 66.40625 18.613281 L 66.40625 16.425781 L 67.347656 16.425781 C 67.679688 16.425781 68.003906 16.390625 68.273438 16.292969 C 68.859375 16.082031 69.207031 15.59375 69.207031 14.96875 M 68.515625 14.921875 C 68.515625 15.796875 67.820312 15.910156 67.105469 15.910156 L 66.40625 15.910156 L 66.40625 14.007812 L 67.296875 14.007812 C 67.957031 14.007812 68.515625 14.148438 68.515625 14.921875 M 74.625 16.660156 L 74.625 13.5 L 73.957031 13.5 L 73.957031 16.542969 C 73.957031 16.84375 73.949219 17.15625 73.828125 17.4375 C 73.617188 17.941406 73.109375 18.175781 72.582031 18.175781 C 72.136719 18.175781 71.675781 18.011719 71.429688 17.625 C 71.222656 17.304688 71.214844 16.921875 71.214844 16.554688 L 71.214844 13.5 L 70.523438 13.5 L 70.523438 16.648438 C 70.523438 18.046875 71.214844 18.707031 72.578125 18.707031 C 73.894531 18.707031 74.625 17.96875 74.625 16.660156 M 79.765625 14.019531 L 79.765625 13.5 L 75.84375 13.5 L 75.84375 14.019531 L 77.472656 14.019531 L 77.472656 18.613281 L 78.128906 18.613281 L 78.128906 14.019531 Z M 84.871094 18.613281 L 82.710938 13.5 L 81.984375 13.5 L 79.902344 18.613281 L 80.578125 18.613281 L 81.097656 17.261719 L 83.578125 17.261719 L 84.105469 18.613281 Z M 83.371094 16.761719 L 81.285156 16.761719 C 81.625 15.871094 81.925781 14.941406 82.308594 14.070312 Z M 88.941406 14.019531 L 88.941406 13.5 L 85.019531 13.5 L 85.019531 14.019531 L 86.648438 14.019531 L 86.648438 18.613281 L 87.304688 18.613281 L 87.304688 14.019531 Z M 90.839844 13.5 L 90.175781 13.5 L 90.175781 18.613281 L 90.839844 18.613281 Z M 96.964844 16.015625 C 96.964844 14.523438 96.28125 13.390625 94.660156 13.390625 C 93.082031 13.390625 92.347656 14.609375 92.347656 16.054688 C 92.347656 17.527344 93.046875 18.699219 94.652344 18.699219 C 96.265625 18.699219 96.964844 17.492188 96.964844 16.015625 M 96.265625 16.039062 C 96.265625 17.078125 95.863281 18.175781 94.652344 18.175781 C 93.441406 18.175781 93.046875 17.074219 93.046875 16.039062 C 93.046875 15.011719 93.457031 13.921875 94.652344 13.921875 C 95.882812 13.921875 96.265625 14.984375 96.265625 16.039062 M 102.515625 18.613281 L 102.515625 13.5 L 101.917969 13.5 L 101.917969 17.949219 L 99.375 13.5 L 98.484375 13.5 L 98.484375 18.613281 L 99.085938 18.613281 L 99.085938 14.175781 L 101.625 18.613281 Z M 108.714844 18.613281 L 106.558594 13.5 L 105.828125 13.5 L 103.75 18.613281 L 104.421875 18.613281 L 104.945312 17.261719 L 107.421875 17.261719 L 107.953125 18.613281 Z M 107.214844 16.761719 L 105.128906 16.761719 C 105.46875 15.871094 105.773438 14.941406 106.15625 14.070312 Z M 113.140625 18.613281 L 113.140625 18.097656 L 110.628906 18.097656 L 110.628906 13.5 L 109.964844 13.5 L 109.964844 18.613281 Z M 122.191406 18.613281 L 122.191406 13.5 L 121.128906 13.5 L 119.488281 17.820312 L 117.800781 13.5 L 116.742188 13.5 L 116.742188 18.613281 L 117.34375 18.613281 L 117.34375 14 L 119.15625 18.613281 L 119.761719 18.613281 L 121.566406 14.007812 L 121.566406 18.613281 Z M 127.269531 18.613281 L 127.269531 18.097656 L 124.65625 18.097656 L 124.65625 16.230469 L 127.0625 16.230469 L 127.0625 15.714844 L 124.65625 15.714844 L 124.65625 14.015625 L 127.167969 14.015625 L 127.167969 13.5 L 124 13.5 L 124 18.613281 Z M 132.199219 14.019531 L 132.199219 13.5 L 128.28125 13.5 L 128.28125 14.019531 L 129.90625 14.019531 L 129.90625 18.613281 L 130.5625 18.613281 L 130.5625 14.019531 Z M 137.421875 18.613281 L 137.421875 13.5 L 136.757812 13.5 L 136.757812 15.726562 L 134.113281 15.726562 L 134.113281 13.5 L 133.449219 13.5 L 133.449219 18.613281 L 134.113281 18.613281 L 134.113281 16.25 L 136.757812 16.25 L 136.757812 18.613281 Z M 143.5625 16.015625 C 143.5625 14.523438 142.875 13.390625 141.253906 13.390625 C 139.675781 13.390625 138.941406 14.609375 138.941406 16.054688 C 138.941406 17.527344 139.640625 18.699219 141.246094 18.699219 C 142.863281 18.699219 143.5625 17.492188 143.5625 16.015625 M 142.863281 16.039062 C 142.863281 17.078125 142.457031 18.175781 141.246094 18.175781 C 140.039062 18.175781 139.640625 17.074219 139.640625 16.039062 C 139.640625 15.011719 140.050781 13.921875 141.246094 13.921875 C 142.480469 13.921875 142.863281 14.984375 142.863281 16.039062 M 149.300781 16.039062 C 149.300781 15 148.980469 14.113281 148.003906 13.710938 C 147.59375 13.542969 147.035156 13.5 146.589844 13.5 L 145.089844 13.5 L 145.089844 18.613281 L 146.320312 18.613281 C 146.605469 18.613281 146.902344 18.613281 147.183594 18.585938 C 148.648438 18.4375 149.300781 17.4375 149.300781 16.039062 M 148.609375 16.039062 C 148.609375 17.375 148.070312 18.097656 146.675781 18.097656 L 145.753906 18.097656 L 145.753906 14.007812 L 146.546875 14.007812 C 146.992188 14.007812 147.496094 14.035156 147.878906 14.3125 C 148.4375 14.714844 148.609375 15.386719 148.609375 16.039062 M 154.207031 17.183594 C 154.207031 16.265625 153.46875 16.011719 152.742188 15.769531 C 152.429688 15.664062 152.035156 15.558594 151.742188 15.402344 C 151.472656 15.253906 151.289062 15.0625 151.289062 14.769531 C 151.289062 14.164062 151.878906 13.921875 152.410156 13.921875 C 152.945312 13.921875 153.371094 14.121094 153.429688 14.714844 L 154.097656 14.714844 C 154.085938 13.730469 153.257812 13.421875 152.414062 13.421875 C 151.53125 13.421875 150.621094 13.816406 150.621094 14.828125 C 150.621094 15.710938 151.347656 15.988281 152.074219 16.214844 C 152.402344 16.3125 152.777344 16.414062 153.074219 16.578125 C 153.34375 16.722656 153.527344 16.9375 153.527344 17.261719 C 153.527344 17.914062 152.875 18.167969 152.308594 18.167969 C 151.707031 18.167969 151.199219 17.886719 151.164062 17.234375 L 150.480469 17.242188 C 150.550781 18.289062 151.332031 18.683594 152.289062 18.683594 C 153.222656 18.683594 154.207031 18.261719 154.207031 17.183594 M 158.683594 13.5 L 158.019531 13.5 L 158.019531 18.613281 L 158.683594 18.613281 Z M 164.484375 18.613281 L 164.484375 13.5 L 163.886719 13.5 L 163.886719 17.949219 L 161.34375 13.5 L 160.453125 13.5 L 160.453125 18.613281 L 161.054688 18.613281 L 161.054688 14.175781 L 163.59375 18.613281 Z M 164.484375 18.613281 "/>
<g clip-path="url(#clip2)" clip-rule="nonzero">
<path style=" stroke:none;fill-rule:nonzero;fill:rgb(19.999695%,64.898682%,76.599121%);fill-opacity:0.5;" d="M 40.25 20.125 C 40.25 9.027344 31.222656 0 20.125 0 C 9.027344 0 0 9.027344 0 20.125 C 0 31.222656 9.027344 40.25 20.125 40.25 C 31.222656 40.25 40.25 31.222656 40.25 20.125 M 15.140625 23.066406 C 15.140625 25.792969 13.898438 26.984375 11.308594 26.984375 C 7.507812 26.984375 7.269531 24.515625 7.269531 20.558594 C 7.269531 16.878906 7.476562 14.1875 11.394531 14.1875 C 13.964844 14.1875 15.039062 15.34375 15.039062 17.867188 L 15.039062 18.140625 L 12.808594 18.140625 L 12.808594 17.917969 C 12.808594 17 12.65625 15.855469 11.34375 15.855469 C 9.703125 15.855469 9.570312 17.578125 9.570312 20.375 C 9.570312 23.902344 9.722656 25.316406 11.273438 25.316406 C 12.757812 25.316406 12.875 24.089844 12.875 22.980469 L 12.875 22.691406 L 15.140625 22.691406 Z M 18.871094 17.304688 C 18.871094 18.601562 20.269531 19.113281 21.449219 19.878906 C 23.015625 20.882812 24.054688 21.464844 24.054688 23.578125 C 24.054688 26.117188 22.46875 26.984375 20.203125 26.984375 C 17.390625 26.984375 16.402344 25.929688 16.402344 23.167969 L 16.402344 23.03125 L 18.71875 23.03125 L 18.71875 23.183594 C 18.71875 24.257812 18.855469 25.316406 20.21875 25.316406 C 21.207031 25.316406 21.753906 24.753906 21.753906 23.765625 C 21.753906 22.539062 20.664062 22.078125 19.453125 21.328125 C 17.886719 20.339844 16.574219 19.621094 16.574219 17.492188 C 16.574219 15.089844 18.175781 14.1875 20.390625 14.1875 C 22.640625 14.1875 23.898438 15.003906 23.898438 17.339844 L 23.898438 17.816406 L 21.636719 17.816406 L 21.636719 17.507812 C 21.636719 16.605469 21.429688 15.855469 20.289062 15.855469 C 19.382812 15.855469 18.871094 16.433594 18.871094 17.304688 M 33.289062 23.066406 C 33.289062 25.792969 32.046875 26.984375 29.453125 26.984375 C 25.65625 26.984375 25.417969 24.515625 25.417969 20.558594 C 25.417969 16.878906 25.621094 14.1875 29.539062 14.1875 C 32.113281 14.1875 33.1875 15.34375 33.1875 17.867188 L 33.1875 18.140625 L 30.957031 18.140625 L 30.957031 17.917969 C 30.957031 17 30.800781 15.855469 29.488281 15.855469 C 27.851562 15.855469 27.714844 17.578125 27.714844 20.375 C 27.714844 23.902344 27.871094 25.316406 29.421875 25.316406 C 30.90625 25.316406 31.023438 24.089844 31.023438 22.980469 L 31.023438 22.691406 L 33.289062 22.691406 Z M 33.289062 23.066406 "/>
</g>
</g>
</svg>
